{
	"asset":{
		"generator":"Khronos glTF Blender I/O v4.1.63",
		"version":"2.0"
	},
	"scene":0,
	"scenes":[
		{
			"name":"Scene",
			"nodes":[
				0,
				1,
				2,
				3,
				4,
				5,
				6,
				7
			]
		}
	],
	"nodes":[
		{
			"mesh":0,
			"name":"\u7acb\u65b9\u4f53",
			"rotation":[
				0,
				0.7071068286895752,
				0,
				0.7071068286895752
			],
			"scale":[
				0.3762941360473633,
				0.3762941360473633,
				0.3762941360473633
			],
			"translation":[
				0.03797508031129837,
				2.8708176612854004,
				0.08072976768016815
			]
		},
		{
			"mesh":1,
			"name":"\u7acb\u65b9\u4f53.001",
			"rotation":[
				0,
				0.7071068286895752,
				0,
				0.7071068286895752
			],
			"scale":[
				0.4754829406738281,
				0.5927268266677856,
				0.42942875623703003
			],
			"translation":[
				0.03797508031129837,
				1.822989821434021,
				0.08072976768016815
			]
		},
		{
			"mesh":2,
			"name":"\u7acb\u65b9\u4f53.003",
			"rotation":[
				-0.16662244498729706,
				0.6871950030326843,
				0.16662244498729706,
				0.6871950030326843
			],
			"scale":[
				0.2336568832397461,
				0.634324848651886,
				0.1708596795797348
			],
			"translation":[
				0.5935243368148804,
				0.503044605255127,
				0.080729641020298
			]
		},
		{
			"mesh":3,
			"name":"\u7acb\u65b9\u4f53.004",
			"rotation":[
				0.013327494263648987,
				0.7069811820983887,
				-0.013327494263648987,
				0.7069811820983887
			],
			"scale":[
				0.2336568832397461,
				0.634324848651886,
				0.1708596795797348
			],
			"translation":[
				-0.14581653475761414,
				0.503044605255127,
				0.08072982728481293
			]
		},
		{
			"mesh":4,
			"name":"\u7acb\u65b9\u4f53.005",
			"rotation":[
				0.013327494263648987,
				0.7069811820983887,
				-0.013327494263648987,
				0.7069811820983887
			],
			"scale":[
				0.2336568832397461,
				0.32302477955818176,
				0.17084869742393494
			],
			"translation":[
				-0.5882865786552429,
				2.0753157138824463,
				0.08072993904352188
			]
		},
		{
			"mesh":5,
			"name":"\u7acb\u65b9\u4f53.006",
			"rotation":[
				0.1282254457473755,
				0.6953835487365723,
				-0.12822546064853668,
				0.6953834891319275
			],
			"scale":[
				0.2336568832397461,
				0.24323464930057526,
				0.170755997300148
			],
			"translation":[
				-0.774344801902771,
				1.4926191568374634,
				0.08072996139526367
			]
		},
		{
			"mesh":6,
			"name":"\u7acb\u65b9\u4f53.007",
			"rotation":[
				0.2209179401397705,
				0.671710729598999,
				-0.2209179401397705,
				0.6717107892036438
			],
			"scale":[
				0.2336568832397461,
				0.32302477955818176,
				0.17084869742393494
			],
			"translation":[
				0.6575207114219666,
				2.504453659057617,
				0.08072961121797562
			]
		},
		{
			"mesh":7,
			"name":"\u7acb\u65b9\u4f53.008",
			"rotation":[
				-0.3940142095088959,
				0.5871565937995911,
				0.3940142095088959,
				0.5871565341949463
			],
			"scale":[
				0.2336568832397461,
				0.24323463439941406,
				0.17075596749782562
			],
			"translation":[
				0.6562721729278564,
				3.0680058002471924,
				0.08072963356971741
			]
		}
	],
	"materials":[
		{
			"doubleSided":true,
			"name":"\u30de\u30c6\u30ea\u30a2\u30eb",
			"pbrMetallicRoughness":{
				"metallicFactor":0,
				"roughnessFactor":0.5
			}
		},
		{
			"doubleSided":true,
			"name":"\u30de\u30c6\u30ea\u30a2\u30eb.001",
			"pbrMetallicRoughness":{
				"baseColorTexture":{
					"index":0
				},
				"metallicFactor":0,
				"roughnessFactor":0.5
			}
		}
	],
	"meshes":[
		{
			"name":"\u7acb\u65b9\u4f53",
			"primitives":[
				{
					"attributes":{
						"POSITION":0,
						"NORMAL":1,
						"TEXCOORD_0":2
					},
					"indices":3,
					"material":0
				},
				{
					"attributes":{
						"POSITION":4,
						"NORMAL":5,
						"TEXCOORD_0":6
					},
					"indices":7,
					"material":1
				}
			]
		},
		{
			"name":"\u7acb\u65b9\u4f53.001",
			"primitives":[
				{
					"attributes":{
						"POSITION":8,
						"NORMAL":9,
						"TEXCOORD_0":10
					},
					"indices":11
				}
			]
		},
		{
			"name":"\u7acb\u65b9\u4f53.003",
			"primitives":[
				{
					"attributes":{
						"POSITION":12,
						"NORMAL":13,
						"TEXCOORD_0":14
					},
					"indices":11
				}
			]
		},
		{
			"name":"\u7acb\u65b9\u4f53.004",
			"primitives":[
				{
					"attributes":{
						"POSITION":15,
						"NORMAL":16,
						"TEXCOORD_0":17
					},
					"indices":11
				}
			]
		},
		{
			"name":"\u7acb\u65b9\u4f53.005",
			"primitives":[
				{
					"attributes":{
						"POSITION":18,
						"NORMAL":19,
						"TEXCOORD_0":20
					},
					"indices":11
				}
			]
		},
		{
			"name":"\u7acb\u65b9\u4f53.006",
			"primitives":[
				{
					"attributes":{
						"POSITION":21,
						"NORMAL":22,
						"TEXCOORD_0":23
					},
					"indices":11
				}
			]
		},
		{
			"name":"\u7acb\u65b9\u4f53.007",
			"primitives":[
				{
					"attributes":{
						"POSITION":24,
						"NORMAL":25,
						"TEXCOORD_0":26
					},
					"indices":11
				}
			]
		},
		{
			"name":"\u7acb\u65b9\u4f53.008",
			"primitives":[
				{
					"attributes":{
						"POSITION":27,
						"NORMAL":28,
						"TEXCOORD_0":29
					},
					"indices":11
				}
			]
		}
	],
	"textures":[
		{
			"sampler":0,
			"source":0
		}
	],
	"images":[
		{
			"mimeType":"image/png",
			"name":"moto",
			"uri":"moto.png"
		}
	],
	"accessors":[
		{
			"bufferView":0,
			"componentType":5126,
			"count":20,
			"max":[
				1,
				1,
				1
			],
			"min":[
				-1,
				-1,
				-1
			],
			"type":"VEC3"
		},
		{
			"bufferView":1,
			"componentType":5126,
			"count":20,
			"type":"VEC3"
		},
		{
			"bufferView":2,
			"componentType":5126,
			"count":20,
			"type":"VEC2"
		},
		{
			"bufferView":3,
			"componentType":5123,
			"count":30,
			"type":"SCALAR"
		},
		{
			"bufferView":4,
			"componentType":5126,
			"count":4,
			"max":[
				1,
				1,
				1
			],
			"min":[
				1,
				-1,
				-1
			],
			"type":"VEC3"
		},
		{
			"bufferView":5,
			"componentType":5126,
			"count":4,
			"type":"VEC3"
		},
		{
			"bufferView":6,
			"componentType":5126,
			"count":4,
			"type":"VEC2"
		},
		{
			"bufferView":7,
			"componentType":5123,
			"count":6,
			"type":"SCALAR"
		},
		{
			"bufferView":8,
			"componentType":5126,
			"count":24,
			"max":[
				1,
				1,
				1
			],
			"min":[
				-1,
				-1,
				-1
			],
			"type":"VEC3"
		},
		{
			"bufferView":9,
			"componentType":5126,
			"count":24,
			"type":"VEC3"
		},
		{
			"bufferView":10,
			"componentType":5126,
			"count":24,
			"type":"VEC2"
		},
		{
			"bufferView":11,
			"componentType":5123,
			"count":36,
			"type":"SCALAR"
		},
		{
			"bufferView":12,
			"componentType":5126,
			"count":24,
			"max":[
				1,
				1,
				1
			],
			"min":[
				-1,
				-1,
				-1
			],
			"type":"VEC3"
		},
		{
			"bufferView":13,
			"componentType":5126,
			"count":24,
			"type":"VEC3"
		},
		{
			"bufferView":14,
			"componentType":5126,
			"count":24,
			"type":"VEC2"
		},
		{
			"bufferView":15,
			"componentType":5126,
			"count":24,
			"max":[
				1,
				1,
				1
			],
			"min":[
				-1,
				-1,
				-1
			],
			"type":"VEC3"
		},
		{
			"bufferView":16,
			"componentType":5126,
			"count":24,
			"type":"VEC3"
		},
		{
			"bufferView":17,
			"componentType":5126,
			"count":24,
			"type":"VEC2"
		},
		{
			"bufferView":18,
			"componentType":5126,
			"count":24,
			"max":[
				1,
				1,
				1
			],
			"min":[
				-1,
				-1,
				-1
			],
			"type":"VEC3"
		},
		{
			"bufferView":19,
			"componentType":5126,
			"count":24,
			"type":"VEC3"
		},
		{
			"bufferView":20,
			"componentType":5126,
			"count":24,
			"type":"VEC2"
		},
		{
			"bufferView":21,
			"componentType":5126,
			"count":24,
			"max":[
				1,
				1,
				1
			],
			"min":[
				-1,
				-1,
				-1
			],
			"type":"VEC3"
		},
		{
			"bufferView":22,
			"componentType":5126,
			"count":24,
			"type":"VEC3"
		},
		{
			"bufferView":23,
			"componentType":5126,
			"count":24,
			"type":"VEC2"
		},
		{
			"bufferView":24,
			"componentType":5126,
			"count":24,
			"max":[
				1,
				1,
				1
			],
			"min":[
				-1,
				-1,
				-1
			],
			"type":"VEC3"
		},
		{
			"bufferView":25,
			"componentType":5126,
			"count":24,
			"type":"VEC3"
		},
		{
			"bufferView":26,
			"componentType":5126,
			"count":24,
			"type":"VEC2"
		},
		{
			"bufferView":27,
			"componentType":5126,
			"count":24,
			"max":[
				1,
				1,
				1
			],
			"min":[
				-1,
				-1,
				-1
			],
			"type":"VEC3"
		},
		{
			"bufferView":28,
			"componentType":5126,
			"count":24,
			"type":"VEC3"
		},
		{
			"bufferView":29,
			"componentType":5126,
			"count":24,
			"type":"VEC2"
		}
	],
	"bufferViews":[
		{
			"buffer":0,
			"byteLength":240,
			"byteOffset":0,
			"target":34962
		},
		{
			"buffer":0,
			"byteLength":240,
			"byteOffset":240,
			"target":34962
		},
		{
			"buffer":0,
			"byteLength":160,
			"byteOffset":480,
			"target":34962
		},
		{
			"buffer":0,
			"byteLength":60,
			"byteOffset":640,
			"target":34963
		},
		{
			"buffer":0,
			"byteLength":48,
			"byteOffset":700,
			"target":34962
		},
		{
			"buffer":0,
			"byteLength":48,
			"byteOffset":748,
			"target":34962
		},
		{
			"buffer":0,
			"byteLength":32,
			"byteOffset":796,
			"target":34962
		},
		{
			"buffer":0,
			"byteLength":12,
			"byteOffset":828,
			"target":34963
		},
		{
			"buffer":0,
			"byteLength":288,
			"byteOffset":840,
			"target":34962
		},
		{
			"buffer":0,
			"byteLength":288,
			"byteOffset":1128,
			"target":34962
		},
		{
			"buffer":0,
			"byteLength":192,
			"byteOffset":1416,
			"target":34962
		},
		{
			"buffer":0,
			"byteLength":72,
			"byteOffset":1608,
			"target":34963
		},
		{
			"buffer":0,
			"byteLength":288,
			"byteOffset":1680,
			"target":34962
		},
		{
			"buffer":0,
			"byteLength":288,
			"byteOffset":1968,
			"target":34962
		},
		{
			"buffer":0,
			"byteLength":192,
			"byteOffset":2256,
			"target":34962
		},
		{
			"buffer":0,
			"byteLength":288,
			"byteOffset":2448,
			"target":34962
		},
		{
			"buffer":0,
			"byteLength":288,
			"byteOffset":2736,
			"target":34962
		},
		{
			"buffer":0,
			"byteLength":192,
			"byteOffset":3024,
			"target":34962
		},
		{
			"buffer":0,
			"byteLength":288,
			"byteOffset":3216,
			"target":34962
		},
		{
			"buffer":0,
			"byteLength":288,
			"byteOffset":3504,
			"target":34962
		},
		{
			"buffer":0,
			"byteLength":192,
			"byteOffset":3792,
			"target":34962
		},
		{
			"buffer":0,
			"byteLength":288,
			"byteOffset":3984,
			"target":34962
		},
		{
			"buffer":0,
			"byteLength":288,
			"byteOffset":4272,
			"target":34962
		},
		{
			"buffer":0,
			"byteLength":192,
			"byteOffset":4560,
			"target":34962
		},
		{
			"buffer":0,
			"byteLength":288,
			"byteOffset":4752,
			"target":34962
		},
		{
			"buffer":0,
			"byteLength":288,
			"byteOffset":5040,
			"target":34962
		},
		{
			"buffer":0,
			"byteLength":192,
			"byteOffset":5328,
			"target":34962
		},
		{
			"buffer":0,
			"byteLength":288,
			"byteOffset":5520,
			"target":34962
		},
		{
			"buffer":0,
			"byteLength":288,
			"byteOffset":5808,
			"target":34962
		},
		{
			"buffer":0,
			"byteLength":192,
			"byteOffset":6096,
			"target":34962
		}
	],
	"samplers":[
		{
			"magFilter":9729,
			"minFilter":9987
		}
	],
	"buffers":[
		{
			"byteLength":6288,
			"uri":"moto.bin"
		}
	]
}
