{
	"asset":{
		"generator":"Khronos glTF Blender I/O v4.1.63",
		"version":"2.0"
	},
	"scene":0,
	"scenes":[
		{
			"name":"Scene",
			"nodes":[
				0
			]
		}
	],
	"nodes":[
		{
			"mesh":0,
			"name":"Cannon_Model"
		}
	],
	"materials":[
		{
			"name":"Material",
			"pbrMetallicRoughness":{
				"baseColorTexture":{
					"index":0
				},
				"metallicFactor":0,
				"roughnessFactor":0.4000000059604645
			}
		}
	],
	"meshes":[
		{
			"name":"Cylinder.006",
			"primitives":[
				{
					"attributes":{
						"POSITION":0,
						"NORMAL":1,
						"TEXCOORD_0":2
					},
					"indices":3,
					"material":0
				}
			]
		}
	],
	"textures":[
		{
			"sampler":0,
			"source":0
		}
	],
	"images":[
		{
			"mimeType":"image/png",
			"name":"Cannon_Basecolor",
			"uri":"Cannon_Basecolor.png"
		}
	],
	"accessors":[
		{
			"bufferView":0,
			"componentType":5126,
			"count":2652,
			"max":[
				1.0254355669021606,
				2.1412460803985596,
				1.0204867124557495
			],
			"min":[
				-1.0254358053207397,
				0.0012131251860409975,
				-2.2134599685668945
			],
			"type":"VEC3"
		},
		{
			"bufferView":1,
			"componentType":5126,
			"count":2652,
			"type":"VEC3"
		},
		{
			"bufferView":2,
			"componentType":5126,
			"count":2652,
			"type":"VEC2"
		},
		{
			"bufferView":3,
			"componentType":5123,
			"count":9792,
			"type":"SCALAR"
		}
	],
	"bufferViews":[
		{
			"buffer":0,
			"byteLength":31824,
			"byteOffset":0,
			"target":34962
		},
		{
			"buffer":0,
			"byteLength":31824,
			"byteOffset":31824,
			"target":34962
		},
		{
			"buffer":0,
			"byteLength":21216,
			"byteOffset":63648,
			"target":34962
		},
		{
			"buffer":0,
			"byteLength":19584,
			"byteOffset":84864,
			"target":34963
		}
	],
	"samplers":[
		{
			"magFilter":9729,
			"minFilter":9987
		}
	],
	"buffers":[
		{
			"byteLength":104448,
			"uri":"Cannon.bin"
		}
	]
}
