{
	"asset":{
		"generator":"Khronos glTF Blender I/O v4.1.62",
		"version":"2.0"
	},
	"scene":0,
	"scenes":[
		{
			"name":"Scene",
			"nodes":[
				0,
				1,
				2
			]
		}
	],
	"nodes":[
		{
			"mesh":0,
			"name":"dirt_grass"
		},
		{
			"mesh":1,
			"name":"dirt_grass2",
			"rotation":[
				0,
				-1,
				0,
				7.549790126404332e-08
			],
			"translation":[
				0,
				0,
				-0.03934521973133087
			]
		},
		{
			"mesh":2,
			"name":"\u7acb\u65b9\u4f53",
			"scale":[
				0.6429347991943359,
				0.08277864009141922,
				0.5337056517601013
			],
			"translation":[
				-10.832710266113281,
				1.292751669883728,
				0
			]
		}
	],
	"materials":[
		{
			"doubleSided":true,
			"name":"grass",
			"pbrMetallicRoughness":{
				"baseColorTexture":{
					"index":0
				},
				"metallicFactor":0,
				"roughnessFactor":0.5
			}
		},
		{
			"doubleSided":true,
			"name":"dirt_grass",
			"pbrMetallicRoughness":{
				"baseColorTexture":{
					"index":1
				},
				"metallicFactor":0,
				"roughnessFactor":0.5
			}
		},
		{
			"doubleSided":true,
			"name":"grass.001",
			"pbrMetallicRoughness":{
				"baseColorTexture":{
					"index":2
				},
				"metallicFactor":0,
				"roughnessFactor":0.5
			}
		},
		{
			"doubleSided":true,
			"name":"dirt_grass.001",
			"pbrMetallicRoughness":{
				"baseColorTexture":{
					"index":3
				},
				"metallicFactor":0,
				"roughnessFactor":0.5
			}
		},
		{
			"doubleSided":true,
			"name":"\u30de\u30c6\u30ea\u30a2\u30eb",
			"pbrMetallicRoughness":{
				"baseColorTexture":{
					"index":4
				},
				"metallicFactor":0,
				"roughnessFactor":0.5
			}
		},
		{
			"doubleSided":true,
			"name":"\u30de\u30c6\u30ea\u30a2\u30eb.001",
			"pbrMetallicRoughness":{
				"baseColorTexture":{
					"index":5
				},
				"metallicFactor":0,
				"roughnessFactor":0.5
			}
		}
	],
	"meshes":[
		{
			"name":"\u5186\u67f1.002",
			"primitives":[
				{
					"attributes":{
						"POSITION":0,
						"NORMAL":1,
						"TEXCOORD_0":2
					},
					"indices":3,
					"material":0
				},
				{
					"attributes":{
						"POSITION":4,
						"NORMAL":5,
						"TEXCOORD_0":6
					},
					"indices":7,
					"material":1
				}
			]
		},
		{
			"name":"\u5186\u67f1.003",
			"primitives":[
				{
					"attributes":{
						"POSITION":8,
						"NORMAL":9,
						"TEXCOORD_0":10
					},
					"indices":11,
					"material":2
				},
				{
					"attributes":{
						"POSITION":12,
						"NORMAL":13,
						"TEXCOORD_0":14
					},
					"indices":15,
					"material":3
				}
			]
		},
		{
			"name":"\u7acb\u65b9\u4f53",
			"primitives":[
				{
					"attributes":{
						"POSITION":16,
						"NORMAL":17,
						"TEXCOORD_0":18
					},
					"indices":19,
					"material":4
				},
				{
					"attributes":{
						"POSITION":20,
						"NORMAL":21,
						"TEXCOORD_0":22
					},
					"indices":23,
					"material":5
				}
			]
		}
	],
	"textures":[
		{
			"sampler":0,
			"source":0
		},
		{
			"sampler":0,
			"source":1
		},
		{
			"sampler":0,
			"source":0
		},
		{
			"sampler":0,
			"source":1
		},
		{
			"sampler":0,
			"source":2
		},
		{
			"sampler":0,
			"source":3
		}
	],
	"images":[
		{
			"mimeType":"image/png",
			"name":"leaves",
			"uri":"leaves.png"
		},
		{
			"mimeType":"image/png",
			"name":"dirt_grass",
			"uri":"dirt_grass.png"
		},
		{
			"mimeType":"image/png",
			"name":"dirt_grass.png",
			"uri":"dirt_grass_png.png"
		},
		{
			"mimeType":"image/png",
			"name":"leaves.png",
			"uri":"leaves_png.png"
		}
	],
	"accessors":[
		{
			"bufferView":0,
			"componentType":5126,
			"count":44,
			"max":[
				-0.8238656520843506,
				1.4382421970367432,
				0.9786930680274963
			],
			"min":[
				-10.134468078613281,
				0.8915742039680481,
				-1.0213069915771484
			],
			"type":"VEC3"
		},
		{
			"bufferView":1,
			"componentType":5126,
			"count":44,
			"type":"VEC3"
		},
		{
			"bufferView":2,
			"componentType":5126,
			"count":44,
			"type":"VEC2"
		},
		{
			"bufferView":3,
			"componentType":5123,
			"count":78,
			"type":"SCALAR"
		},
		{
			"bufferView":4,
			"componentType":5126,
			"count":209,
			"max":[
				-0.8238656520843506,
				1.4382421970367432,
				0.9786930680274963
			],
			"min":[
				-10.134468078613281,
				-1,
				-1.0213069915771484
			],
			"type":"VEC3"
		},
		{
			"bufferView":5,
			"componentType":5126,
			"count":209,
			"type":"VEC3"
		},
		{
			"bufferView":6,
			"componentType":5126,
			"count":209,
			"type":"VEC2"
		},
		{
			"bufferView":7,
			"componentType":5123,
			"count":378,
			"type":"SCALAR"
		},
		{
			"bufferView":8,
			"componentType":5126,
			"count":14,
			"max":[
				-0.8543996810913086,
				2.7679336071014404,
				0.9786930680274963
			],
			"min":[
				-10.134468078613281,
				0.6564425230026245,
				-1.0213069915771484
			],
			"type":"VEC3"
		},
		{
			"bufferView":9,
			"componentType":5126,
			"count":14,
			"type":"VEC3"
		},
		{
			"bufferView":10,
			"componentType":5126,
			"count":14,
			"type":"VEC2"
		},
		{
			"bufferView":11,
			"componentType":5123,
			"count":30,
			"type":"SCALAR"
		},
		{
			"bufferView":12,
			"componentType":5126,
			"count":138,
			"max":[
				-0.5937137603759766,
				2.7679336071014404,
				0.9786930680274963
			],
			"min":[
				-10.134468078613281,
				-1,
				-1.0213069915771484
			],
			"type":"VEC3"
		},
		{
			"bufferView":13,
			"componentType":5126,
			"count":138,
			"type":"VEC3"
		},
		{
			"bufferView":14,
			"componentType":5126,
			"count":138,
			"type":"VEC2"
		},
		{
			"bufferView":15,
			"componentType":5123,
			"count":270,
			"type":"SCALAR"
		},
		{
			"bufferView":16,
			"componentType":5126,
			"count":20,
			"max":[
				1.1657997369766235,
				1,
				1
			],
			"min":[
				-0.8342003226280212,
				-3.441251277923584,
				-1.0113329887390137
			],
			"type":"VEC3"
		},
		{
			"bufferView":17,
			"componentType":5126,
			"count":20,
			"type":"VEC3"
		},
		{
			"bufferView":18,
			"componentType":5126,
			"count":20,
			"type":"VEC2"
		},
		{
			"bufferView":19,
			"componentType":5123,
			"count":30,
			"type":"SCALAR"
		},
		{
			"bufferView":20,
			"componentType":5126,
			"count":4,
			"max":[
				1.1657997369766235,
				1,
				1
			],
			"min":[
				-0.8342003226280212,
				1,
				-1.0113329887390137
			],
			"type":"VEC3"
		},
		{
			"bufferView":21,
			"componentType":5126,
			"count":4,
			"type":"VEC3"
		},
		{
			"bufferView":22,
			"componentType":5126,
			"count":4,
			"type":"VEC2"
		},
		{
			"bufferView":23,
			"componentType":5123,
			"count":6,
			"type":"SCALAR"
		}
	],
	"bufferViews":[
		{
			"buffer":0,
			"byteLength":528,
			"byteOffset":0,
			"target":34962
		},
		{
			"buffer":0,
			"byteLength":528,
			"byteOffset":528,
			"target":34962
		},
		{
			"buffer":0,
			"byteLength":352,
			"byteOffset":1056,
			"target":34962
		},
		{
			"buffer":0,
			"byteLength":156,
			"byteOffset":1408,
			"target":34963
		},
		{
			"buffer":0,
			"byteLength":2508,
			"byteOffset":1564,
			"target":34962
		},
		{
			"buffer":0,
			"byteLength":2508,
			"byteOffset":4072,
			"target":34962
		},
		{
			"buffer":0,
			"byteLength":1672,
			"byteOffset":6580,
			"target":34962
		},
		{
			"buffer":0,
			"byteLength":756,
			"byteOffset":8252,
			"target":34963
		},
		{
			"buffer":0,
			"byteLength":168,
			"byteOffset":9008,
			"target":34962
		},
		{
			"buffer":0,
			"byteLength":168,
			"byteOffset":9176,
			"target":34962
		},
		{
			"buffer":0,
			"byteLength":112,
			"byteOffset":9344,
			"target":34962
		},
		{
			"buffer":0,
			"byteLength":60,
			"byteOffset":9456,
			"target":34963
		},
		{
			"buffer":0,
			"byteLength":1656,
			"byteOffset":9516,
			"target":34962
		},
		{
			"buffer":0,
			"byteLength":1656,
			"byteOffset":11172,
			"target":34962
		},
		{
			"buffer":0,
			"byteLength":1104,
			"byteOffset":12828,
			"target":34962
		},
		{
			"buffer":0,
			"byteLength":540,
			"byteOffset":13932,
			"target":34963
		},
		{
			"buffer":0,
			"byteLength":240,
			"byteOffset":14472,
			"target":34962
		},
		{
			"buffer":0,
			"byteLength":240,
			"byteOffset":14712,
			"target":34962
		},
		{
			"buffer":0,
			"byteLength":160,
			"byteOffset":14952,
			"target":34962
		},
		{
			"buffer":0,
			"byteLength":60,
			"byteOffset":15112,
			"target":34963
		},
		{
			"buffer":0,
			"byteLength":48,
			"byteOffset":15172,
			"target":34962
		},
		{
			"buffer":0,
			"byteLength":48,
			"byteOffset":15220,
			"target":34962
		},
		{
			"buffer":0,
			"byteLength":32,
			"byteOffset":15268,
			"target":34962
		},
		{
			"buffer":0,
			"byteLength":12,
			"byteOffset":15300,
			"target":34963
		}
	],
	"samplers":[
		{
			"magFilter":9729,
			"minFilter":9987
		}
	],
	"buffers":[
		{
			"byteLength":15312,
			"uri":"SideViewMap.bin"
		}
	]
}
