{
	"asset":{
		"generator":"Khronos glTF Blender I/O v4.1.63",
		"version":"2.0"
	},
	"scene":0,
	"scenes":[
		{
			"name":"Scene",
			"nodes":[
				0
			]
		}
	],
	"nodes":[
		{
			"mesh":0,
			"name":"\u7acb\u65b9\u4f53",
			"scale":[
				1,
				0.9686257839202881,
				4.569919109344482
			],
			"translation":[
				0,
				-0.28074079751968384,
				0
			]
		}
	],
	"materials":[
		{
			"doubleSided":true,
			"name":"\u30de\u30c6\u30ea\u30a2\u30eb",
			"pbrMetallicRoughness":{
				"metallicFactor":0,
				"roughnessFactor":0.5
			}
		},
		{
			"doubleSided":true,
			"name":"\u30de\u30c6\u30ea\u30a2\u30eb.001",
			"pbrMetallicRoughness":{
				"baseColorFactor":[
					0,
					0.7627937197685242,
					0.8002588152885437,
					1
				],
				"metallicFactor":0,
				"roughnessFactor":0.5
			}
		},
		{
			"doubleSided":true,
			"name":"\u30de\u30c6\u30ea\u30a2\u30eb.002",
			"pbrMetallicRoughness":{
				"baseColorFactor":[
					0.8002997636795044,
					0.029451798647642136,
					0.011483791284263134,
					1
				],
				"metallicFactor":0,
				"roughnessFactor":0.5
			}
		}
	],
	"meshes":[
		{
			"name":"\u7acb\u65b9\u4f53.002",
			"primitives":[
				{
					"attributes":{
						"POSITION":0,
						"NORMAL":1,
						"TEXCOORD_0":2
					},
					"indices":3,
					"material":0
				},
				{
					"attributes":{
						"POSITION":4,
						"NORMAL":5,
						"TEXCOORD_0":6
					},
					"indices":7,
					"material":1
				},
				{
					"attributes":{
						"POSITION":8,
						"NORMAL":9,
						"TEXCOORD_0":10
					},
					"indices":11,
					"material":2
				}
			]
		}
	],
	"accessors":[
		{
			"bufferView":0,
			"componentType":5126,
			"count":602,
			"max":[
				1,
				3.153623104095459,
				1.1257728338241577
			],
			"min":[
				-1,
				0.017686128616333008,
				-1.3220118284225464
			],
			"type":"VEC3"
		},
		{
			"bufferView":1,
			"componentType":5126,
			"count":602,
			"type":"VEC3"
		},
		{
			"bufferView":2,
			"componentType":5126,
			"count":602,
			"type":"VEC2"
		},
		{
			"bufferView":3,
			"componentType":5123,
			"count":1128,
			"type":"SCALAR"
		},
		{
			"bufferView":4,
			"componentType":5126,
			"count":36,
			"max":[
				0.5573171377182007,
				2.2640764713287354,
				0.288638710975647
			],
			"min":[
				-0.5309166312217712,
				1.9196451902389526,
				-0.6459783911705017
			],
			"type":"VEC3"
		},
		{
			"bufferView":5,
			"componentType":5126,
			"count":36,
			"type":"VEC3"
		},
		{
			"bufferView":6,
			"componentType":5126,
			"count":36,
			"type":"VEC2"
		},
		{
			"bufferView":7,
			"componentType":5123,
			"count":54,
			"type":"SCALAR"
		},
		{
			"bufferView":8,
			"componentType":5126,
			"count":78,
			"max":[
				0.47470447421073914,
				0.023980185389518738,
				1.045674443244934
			],
			"min":[
				-0.47470447421073914,
				-0.5325735211372375,
				-1.1169384717941284
			],
			"type":"VEC3"
		},
		{
			"bufferView":9,
			"componentType":5126,
			"count":78,
			"type":"VEC3"
		},
		{
			"bufferView":10,
			"componentType":5126,
			"count":78,
			"type":"VEC2"
		},
		{
			"bufferView":11,
			"componentType":5123,
			"count":186,
			"type":"SCALAR"
		}
	],
	"bufferViews":[
		{
			"buffer":0,
			"byteLength":7224,
			"byteOffset":0,
			"target":34962
		},
		{
			"buffer":0,
			"byteLength":7224,
			"byteOffset":7224,
			"target":34962
		},
		{
			"buffer":0,
			"byteLength":4816,
			"byteOffset":14448,
			"target":34962
		},
		{
			"buffer":0,
			"byteLength":2256,
			"byteOffset":19264,
			"target":34963
		},
		{
			"buffer":0,
			"byteLength":432,
			"byteOffset":21520,
			"target":34962
		},
		{
			"buffer":0,
			"byteLength":432,
			"byteOffset":21952,
			"target":34962
		},
		{
			"buffer":0,
			"byteLength":288,
			"byteOffset":22384,
			"target":34962
		},
		{
			"buffer":0,
			"byteLength":108,
			"byteOffset":22672,
			"target":34963
		},
		{
			"buffer":0,
			"byteLength":936,
			"byteOffset":22780,
			"target":34962
		},
		{
			"buffer":0,
			"byteLength":936,
			"byteOffset":23716,
			"target":34962
		},
		{
			"buffer":0,
			"byteLength":624,
			"byteOffset":24652,
			"target":34962
		},
		{
			"buffer":0,
			"byteLength":372,
			"byteOffset":25276,
			"target":34963
		}
	],
	"buffers":[
		{
			"byteLength":25648,
			"uri":"ship.bin"
		}
	]
}
